<?xml version="1.0" encoding="utf-8"?>
<!-- Generator: Adobe Illustrator 16.0.0, SVG Export Plug-In . SVG Version: 6.00 Build 0)  -->
<!DOCTYPE svg PUBLIC "-//W3C//DTD SVG 1.1//EN" "http://www.w3.org/Graphics/SVG/1.1/DTD/svg11.dtd">
<svg version="1.1" id="Layer_1" xmlns="http://www.w3.org/2000/svg" xmlns:xlink="http://www.w3.org/1999/xlink" x="0px" y="0px"
	 width="1024px" height="768px" viewBox="0 0 1024 768" enable-background="new 0 0 1024 768" xml:space="preserve">
<rect fill="none" width="1024" height="768"/>
<g>
	<defs>
		<rect id="SVGID_1_" x="4" y="64.371" width="1016" height="634.265"/>
	</defs>
	<clipPath id="SVGID_2_">
		<use xlink:href="#SVGID_1_"  overflow="visible"/>
	</clipPath>
	<g clip-path="url(#SVGID_2_)">
		<defs>
			<rect id="SVGID_3_" x="4" y="64.37" width="1016" height="634.266"/>
		</defs>
		<clipPath id="SVGID_4_">
			<use xlink:href="#SVGID_3_"  overflow="visible"/>
		</clipPath>
		<path clip-path="url(#SVGID_4_)" fill="#55C1B4" d="M112.176,237.836c0-32.5,26.431-58.851,59.04-58.851
			c32.603,0,59.034,26.351,59.034,58.851c0,32.498-26.431,58.852-59.034,58.852C138.606,296.688,112.176,270.334,112.176,237.836"/>
		<path clip-path="url(#SVGID_4_)" fill="#03A2A6" d="M342.141,237.836c0-32.5,26.428-58.851,59.039-58.851
			c32.602,0,59.033,26.351,59.033,58.851c0,32.498-26.431,58.852-59.033,58.852C368.569,296.688,342.141,270.334,342.141,237.836"/>
		<path clip-path="url(#SVGID_4_)" fill="#03A2A6" d="M287.518,411.3c-32.603,0-59.04-26.345-59.04-58.85
			c0-32.5,26.437-58.846,59.04-58.846c32.602,0,59.039,26.347,59.039,58.846C346.557,384.955,320.12,411.3,287.518,411.3"/>
		<path clip-path="url(#SVGID_4_)" fill="#55C1B4" d="M286.194,182.068c-32.602,0-59.039-26.347-59.039-58.851
			c0-32.5,26.438-58.846,59.039-58.846c32.604,0,59.041,26.346,59.041,58.846C345.235,155.722,318.798,182.068,286.194,182.068"/>
		<path clip-path="url(#SVGID_4_)" fill="#BED971" d="M563.026,237.836c0-32.5,26.431-58.851,59.04-58.851
			c32.602,0,59.033,26.351,59.033,58.851c0,32.498-26.432,58.852-59.033,58.852C589.457,296.688,563.026,270.334,563.026,237.836"/>
		<path clip-path="url(#SVGID_4_)" fill="#AECB44" d="M792.992,237.836c0-32.5,26.431-58.851,59.038-58.851
			c32.604,0,59.032,26.351,59.032,58.851c0,32.498-26.428,58.852-59.032,58.852C819.423,296.688,792.992,270.334,792.992,237.836"/>
		<path clip-path="url(#SVGID_4_)" fill="#BED971" d="M736.479,411.3c-32.603,0-59.039-26.345-59.039-58.85
			c0-32.5,26.437-58.846,59.039-58.846c32.604,0,59.041,26.347,59.041,58.846C795.52,384.955,769.082,411.3,736.479,411.3"/>
		<path clip-path="url(#SVGID_4_)" fill="#028380" d="M511.999,411.3c-32.603,0-59.04-26.345-59.04-58.85
			c0-32.5,26.438-58.846,59.04-58.846c32.603,0,59.04,26.347,59.04,58.846C571.038,384.955,544.602,411.3,511.999,411.3"/>
		<path clip-path="url(#SVGID_4_)" fill="#AECB44" d="M960.958,411.3c-32.6,0-59.037-26.345-59.037-58.85
			c0-32.5,26.438-58.846,59.037-58.846c32.604,0,59.042,26.347,59.042,58.846C1020,384.955,993.562,411.3,960.958,411.3"/>
		<path clip-path="url(#SVGID_4_)" fill="#55C1B4" d="M63.037,411.3c-32.604,0-59.04-26.345-59.04-58.85
			c0-32.5,26.437-58.846,59.04-58.846c32.603,0,59.041,26.347,59.041,58.846C122.078,384.955,95.64,411.3,63.037,411.3"/>
		<path clip-path="url(#SVGID_4_)" fill="#AECB44" d="M737.046,182.068c-32.602,0-59.038-26.347-59.038-58.851
			c0-32.5,26.437-58.846,59.038-58.846c32.604,0,59.041,26.346,59.041,58.846C796.087,155.722,769.65,182.068,737.046,182.068"/>
		<polygon clip-path="url(#SVGID_4_)" fill="#2F2933" points="296.564,698.636 268.517,698.636 268.517,504.924 291.282,504.924 
			355.415,599.019 419.539,504.924 441.749,504.924 441.749,698.636 413.991,698.636 413.991,562.209 363.185,637.472 
			347.359,637.472 296.564,562.209 		"/>
		<path clip-path="url(#SVGID_4_)" fill="#2F2933" d="M460.36,566.634c5.002-34.585,27.211-62.817,67.741-62.817
			c73.564,0,93.552,80.532,41.088,117.061c-27.492,22.686-34.704,27.676-62.747,50.919h89.113v26.84H459.252v-21.582l91.328-77.488
			h-0.269c30.533-21.859,23.035-67.797-22.21-67.797c-23.875,0-36.37,15.497-39.7,37.08L460.36,566.634z"/>
		<path clip-path="url(#SVGID_4_)" fill="#2F2933" d="M692.179,505.205c24.429,0,39.972,13.836,47.199,31.827
			c7.767,19.096,5.273,41.234-14.16,55.063c22.206,9.411,30.265,29.888,30.265,48.152c0,29.057-19.16,58.391-56.358,58.391h-87.725
			V505.205H692.179z M639.155,582.134h52.474c30.534,0,31.094-50.366,0.55-50.366h-53.023V582.134z M639.155,671.513h59.969
			c18.873,0,28.315-15.768,28.315-30.995c0-15.212-9.442-30.714-28.315-30.714h-59.969V671.513z"/>
	</g>
</g>
</svg>
