<?xml version="1.0" encoding="utf-8"?>
<!-- Generator: Adobe Illustrator 18.1.1, SVG Export Plug-In . SVG Version: 6.00 Build 0)  -->
<svg version="1.1" id="Layer_1" xmlns:sketch="http://www.bohemiancoding.com/sketch/ns"
	 xmlns="http://www.w3.org/2000/svg" xmlns:xlink="http://www.w3.org/1999/xlink" x="0px" y="0px" viewBox="-14 41.1 143 90"
	 enable-background="new -14 41.1 143 90" xml:space="preserve">
<title>LANDING/01_DESKTOP/logo</title>
<desc>Created with Sketch.</desc>
<g>
	<g>
		<path fill="#2F2933" d="M-12.6,111.9h1.4l4.5,6.7l4.5-6.7h1.4v12.2h-1.4v-9.9l-4.5,6.6h-0.1l-4.5-6.5v9.9h-1.3V111.9z"/>
		<path fill="#2F2933" d="M1.7,119.7c0-2.6,2-4.7,4.7-4.7c2.7,0,4.7,2.1,4.7,4.7c0,2.6-2,4.7-4.7,4.7C3.7,124.4,1.7,122.3,1.7,119.7
			z M9.8,119.7c0-1.9-1.5-3.5-3.4-3.5c-2,0-3.3,1.6-3.3,3.5c0,1.9,1.4,3.5,3.3,3.5C8.4,123.2,9.8,121.6,9.8,119.7z"/>
		<path fill="#2F2933" d="M14.9,122.4v1.7h-1.3v-12.8h1.3v5.5c0.7-1.1,1.8-2,3.5-2c2.2,0,4.3,1.7,4.3,4.7c0,3-2.1,4.7-4.3,4.7
			C16.7,124.4,15.6,123.5,14.9,122.4z M21.3,119.6c0-2.1-1.5-3.5-3.2-3.5c-1.7,0-3.3,1.4-3.3,3.5s1.6,3.5,3.3,3.5
			C19.9,123.2,21.3,121.9,21.3,119.6z"/>
		<path fill="#2F2933" d="M25.2,111.7h1.5v1.5h-1.5V111.7z M25.3,115.1h1.3v9h-1.3V115.1z"/>
		<path fill="#2F2933" d="M29.9,111.4h1.3v12.8h-1.3V111.4z"/>
		<path fill="#2F2933" d="M38.4,123.2c1.2,0,2.1-0.5,2.8-1.3l0.8,0.8c-0.9,1-2,1.7-3.7,1.7c-2.5,0-4.5-1.9-4.5-4.7
			c0-2.6,1.8-4.7,4.3-4.7c2.7,0,4.2,2.1,4.2,4.8c0,0.1,0,0.3,0,0.5h-7.2C35.4,122.1,36.8,123.2,38.4,123.2z M41,119.1
			c-0.2-1.6-1.1-3-2.9-3c-1.6,0-2.7,1.3-2.9,3H41z"/>
		<path fill="#2F2933" d="M44.1,123.1l4.4-3.9c1.9-1.7,2.6-2.6,2.6-3.8c0-1.4-1.1-2.3-2.5-2.3c-1.4,0-2.3,0.7-3.3,2.1l-1-0.7
			c1.1-1.6,2.3-2.6,4.4-2.6c2.2,0,3.8,1.5,3.8,3.5c0,1.8-1,2.9-3.1,4.8l-3.3,2.9h6.5v1.3h-8.6V123.1z"/>
		<path fill="#2F2933" d="M55.4,111.9h5.2c1.4,0,2.5,0.4,3.2,1.1c0.5,0.5,0.8,1.2,0.8,2c0,1.6-1,2.4-1.9,2.8c1.5,0.4,2.6,1.3,2.6,3
			c0,2.1-1.8,3.3-4.4,3.3h-5.4V111.9z M60.4,117.4c1.7,0,2.8-0.8,2.8-2.2c0-1.2-1-2-2.7-2h-3.7v4.2H60.4z M60.9,122.9
			c1.9,0,3-0.8,3-2.2c0-1.3-1.1-2.1-3.3-2.1h-3.9v4.3H60.9z"/>
		<path fill="#2F2933" d="M67.7,120.8v-5.6H69v5.3c0,1.7,0.9,2.7,2.5,2.7c1.5,0,2.7-1.1,2.7-2.8v-5.2h1.3v9h-1.3v-1.6
			c-0.6,1-1.5,1.8-3.1,1.8C69,124.4,67.7,122.9,67.7,120.8z"/>
		<path fill="#2F2933" d="M77.9,123l0.7-1c1,0.7,2.1,1.2,3.1,1.2c1.1,0,1.9-0.6,1.9-1.5c0-0.9-1.1-1.3-2.3-1.6c-1.4-0.4-3-0.9-3-2.6
			c0-1.6,1.3-2.6,3.1-2.6c1.1,0,2.3,0.4,3.3,1l-0.6,1c-0.8-0.5-1.8-0.9-2.7-0.9c-1.1,0-1.7,0.6-1.7,1.3c0,0.9,1.1,1.2,2.3,1.6
			c1.4,0.4,2.9,1,2.9,2.6c0,1.7-1.4,2.7-3.2,2.7C80.3,124.4,78.9,123.8,77.9,123z"/>
		<path fill="#2F2933" d="M87.3,111.7h1.5v1.5h-1.5V111.7z M87.4,115.1h1.3v9h-1.3V115.1z"/>
		<path fill="#2F2933" d="M91.9,115.1h1.3v1.6c0.6-1,1.5-1.8,3.1-1.8c2.2,0,3.5,1.5,3.5,3.6v5.6h-1.3v-5.3c0-1.7-0.9-2.7-2.5-2.7
			c-1.6,0-2.7,1.1-2.7,2.8v5.2h-1.3V115.1z"/>
		<path fill="#2F2933" d="M106.7,123.2c1.2,0,2.1-0.5,2.8-1.3l0.8,0.8c-0.9,1-2,1.7-3.7,1.7c-2.5,0-4.5-1.9-4.5-4.7
			c0-2.6,1.8-4.7,4.3-4.7c2.7,0,4.2,2.1,4.2,4.8c0,0.1,0,0.3,0,0.5h-7.2C103.7,122.1,105.1,123.2,106.7,123.2z M109.3,119.1
			c-0.2-1.6-1.1-3-2.9-3c-1.6,0-2.7,1.3-2.9,3H109.3z"/>
		<path fill="#2F2933" d="M112.3,123l0.7-1c1,0.7,2.1,1.2,3.1,1.2c1.1,0,1.9-0.6,1.9-1.5c0-0.9-1.1-1.3-2.3-1.6
			c-1.4-0.4-3-0.9-3-2.6c0-1.6,1.3-2.6,3.1-2.6c1.1,0,2.3,0.4,3.3,1l-0.6,1c-0.8-0.5-1.8-0.9-2.7-0.9c-1.1,0-1.7,0.6-1.7,1.3
			c0,0.9,1.1,1.2,2.3,1.6c1.4,0.4,2.9,1,2.9,2.6c0,1.7-1.4,2.7-3.2,2.7C114.7,124.4,113.3,123.8,112.3,123z"/>
		<path fill="#2F2933" d="M120.8,123l0.7-1c1,0.7,2.1,1.2,3.1,1.2c1.1,0,1.9-0.6,1.9-1.5c0-0.9-1.1-1.3-2.3-1.6
			c-1.4-0.4-3-0.9-3-2.6c0-1.6,1.3-2.6,3.1-2.6c1.1,0,2.3,0.4,3.3,1l-0.6,1c-0.8-0.5-1.8-0.9-2.7-0.9c-1.1,0-1.7,0.6-1.7,1.3
			c0,0.9,1.1,1.2,2.3,1.6c1.4,0.4,2.9,1,2.9,2.6c0,1.7-1.4,2.7-3.2,2.7C123.2,124.4,121.8,123.8,120.8,123z"/>
	</g>
	<g>
		<g>
			<circle fill="#55C1B4" cx="10.5" cy="73.6" r="8.2"/>
			<circle fill="#03A2A6" cx="42.2" cy="73.6" r="8.2"/>
		</g>
		<circle fill="#03A2A6" cx="26.5" cy="89.5" r="8.2"/>
		<circle fill="#55C1B4" cx="26.4" cy="57.7" r="8.2"/>
		<g>
			<circle fill="#BED971" cx="72.8" cy="73.6" r="8.2"/>
			<circle fill="#AECB44" cx="104.5" cy="73.6" r="8.2"/>
		</g>
		<circle fill="#BED971" cx="88.6" cy="89.5" r="8.2"/>
		<circle fill="#028380" cx="57.6" cy="89.5" r="8.2"/>
		<circle fill="#AECB44" cx="119.6" cy="89.5" r="8.2"/>
		<circle fill="#55C1B4" cx="-4.5" cy="89.5" r="8.2"/>
		<circle fill="#AECB44" cx="88.7" cy="57.7" r="8.2"/>
	</g>
</g>
</svg>
